<svg xmlns="http://www.w3.org/2000/svg" width="263" height="96" viewBox="0 0 263 96" role="img" aria-label="easydi">
  <g transform="translate(8,8)">
    <circle cx="40" cy="40" r="39" fill="none" stroke="#c4ced6" stroke-width="2"/>
    <line x1="26" y1="26" x2="56" y2="32" stroke="#8b97a1" stroke-width="3"/>
    <line x1="56" y1="32" x2="40" y2="58" stroke="#8b97a1" stroke-width="3"/>
    <line x1="26" y1="26" x2="40" y2="58" stroke="#8b97a1" stroke-width="3"/>
    <circle cx="26" cy="26" r="7" fill="#00ADD8"/>
    <circle cx="56" cy="32" r="7" fill="#5dd4ea"/>
    <circle cx="40" cy="58" r="7" fill="#1f2a33"/>
  </g>
  <path transform="translate(100.000,60.000) scale(0.042000,-0.042000)" d="M301 -10Q231 -10 179.0 17.0Q127 44 98.5 93.5Q70 143 70 210V340Q70 407 98.5 456.5Q127 506 179.0 533.0Q231 560 301 560Q370 560 421.5 533.0Q473 506 501.5 457.5Q530 409 530 344V244H190V206Q190 150 219.0 121.5Q248 93 301 93Q340 93 367.5 106.5Q395 120 400 146H524Q511 75 450.0 32.5Q389 -10 301 -10ZM190 344V325L410 326V345Q410 402 382.0 433.0Q354 464 301 464Q246 464 218.0 432.5Q190 401 190 344Z" fill="#1f2a33"/>
  <path transform="translate(125.200,60.000) scale(0.042000,-0.042000)" d="M239 -10Q155 -10 106.5 37.5Q58 85 58 162Q58 242 113.0 289.5Q168 337 264 337H398V376Q398 459 301 459Q257 459 231.0 442.0Q205 425 202 394H82Q86 468 144.5 514.0Q203 560 302 560Q407 560 465.0 511.0Q523 462 523 373V0H401V103Q394 50 351.0 20.0Q308 -10 239 -10ZM279 92Q334 92 366.0 119.0Q398 146 398 191V256H270Q229 256 205.0 233.0Q181 210 181 174Q181 137 206.5 114.5Q232 92 279 92Z" fill="#1f2a33"/>
  <path transform="translate(150.400,60.000) scale(0.042000,-0.042000)" d="M277 -9Q179 -9 122.0 35.5Q65 80 65 156H188Q188 124 211.5 107.0Q235 90 277 90H321Q366 90 390.5 107.0Q415 124 415 156Q415 186 398.0 200.5Q381 215 346 220L209 238Q143 247 107.5 289.0Q72 331 72 398Q72 476 124.0 517.5Q176 559 274 559H320Q412 559 468.0 517.0Q524 475 526 405H402Q401 431 379.0 446.5Q357 462 320 462H274Q234 462 213.0 445.5Q192 429 192 401Q192 376 207.5 364.0Q223 352 253 349L382 331Q458 322 496.5 277.5Q535 233 535 158Q535 78 480.5 34.5Q426 -9 321 -9Z" fill="#1f2a33"/>
  <path transform="translate(175.600,60.000) scale(0.042000,-0.042000)" d="M165 -180 243 30 36 550H168L274 269Q283 244 292.0 214.5Q301 185 305 160Q308 185 316.5 214.5Q325 244 334 269L432 550H564L296 -180Z" fill="#1f2a33"/>
  <path transform="translate(200.800,60.000) scale(0.042000,-0.042000)" d="M250 -10Q170 -10 120.5 47.0Q71 104 71 200V349Q71 446 120.0 503.0Q169 560 250 560Q307 560 346.5 531.0Q386 502 402 450L398 576V730H523V0H401V100Q386 48 347.0 19.0Q308 -10 250 -10ZM297 98Q345 98 371.5 127.0Q398 156 398 209V341Q398 394 371.5 423.0Q345 452 297 452Q249 452 222.5 426.0Q196 400 196 346V204Q196 150 222.5 124.0Q249 98 297 98Z" fill="#1f2a33"/>
  <path transform="translate(226.000,60.000) scale(0.042000,-0.042000)" d="M76 0V113H264V437H96V550H389V113H558V0Z" fill="#1f2a33"/>
  <circle cx="239.314" cy="26.400" r="6.5" fill="#00ADD8"/>
</svg>
